Coordinates
version=1
nRows=20
nColumns=38
inDegrees=no

Units are S.I. units (second, meters, Newtons, ...)
If the header above contains a line with 'inDegrees', this indicates whether rotational values are in degrees (yes) or radians (no).

endheader
time	pelvis_tilt	pelvis_list	pelvis_rotation	pelvis_tx	pelvis_ty	pelvis_tz	hip_flexion_r	hip_adduction_r	hip_rotation_r	knee_angle_r	ankle_angle_r	subtalar_angle_r	mtp_angle_r	hip_flexion_l	hip_adduction_l	hip_rotation_l	knee_angle_l	ankle_angle_l	subtalar_angle_l	mtp_angle_l	lumbar_extension	lumbar_bending	lumbar_rotation	arm_flex_r	arm_add_r	arm_rot_r	elbow_flex_r	pro_sup_r	wrist_flex_r	wrist_dev_r	arm_flex_l	arm_add_l	arm_rot_l	elbow_flex_l	pro_sup_l	wrist_flex_l	wrist_dev_l
0.57	-2.65056	1.48171	-2.1712	0.72942	-0.24813	0.939739	0.101671	-0.189944	-0.105245	1.13806	-0.267052	0	0	0.18376	0.0886404	-0.374001	0.31344	0.0273194	0	0	-0.189115	-0.0644406	0.206079	-0.0199334	-0.322547	0.727002	0.366414	0.834636	0	0	-0.0776109	-0.216448	0.19831	0.582042	1.5708	0	0
0.58	-2.56541	1.44139	-2.25362	0.728459	-0.23944	0.945847	0.104014	-0.22844	-0.089529	1.16904	-0.252183	0	0	0.116381	0.135577	-0.369751	0.25428	-0.00241368	0	0	-0.223811	-0.0989607	0.195167	-0.00913115	-0.314979	0.726562	0.360935	0.83032	0	0	-0.0671035	-0.218772	0.193624	0.5762	1.5708	0	0
0.59	-2.71392	1.47594	-2.09758	0.727205	-0.229405	0.942703	0.155589	-0.188129	-0.0802695	1.20695	-0.222905	0	0	0.140419	0.0986324	-0.358365	0.29023	0.041493	0	0	-0.198851	-0.0596636	0.192338	-0.0182037	-0.323756	0.723695	0.37388	0.831918	0	0	-0.0759402	-0.214753	0.1914	0.581059	1.5708	0	0
0.6	-2.76028	1.4755	-2.04572	0.726024	-0.220444	0.944104	0.182579	-0.183145	-0.0698229	1.23336	-0.193411	0	0	0.12033	0.100551	-0.350089	0.277794	0.0478337	0	0	-0.202638	-0.0538452	0.185354	-0.016702	-0.324262	0.721159	0.376375	0.833989	0	0	-0.0728925	-0.211973	0.188429	0.57589	1.5708	0	0
0.61	-2.81545	1.48022	-1.98353	0.72453	-0.211813	0.944838	0.213388	-0.174676	-0.0619155	1.25438	-0.165887	0	0	0.101861	0.101071	-0.341744	0.256675	0.0502426	0	0	-0.201727	-0.0439791	0.177246	-0.0153456	-0.325459	0.717782	0.378866	0.836603	0	0	-0.0690993	-0.207531	0.184907	0.568319	1.5708	0	0
0.62	-2.88449	1.48444	-1.90925	0.723231	-0.20311	0.94558	0.242337	-0.164872	-0.0536963	1.26857	-0.134612	0	0	0.0837221	0.0996431	-0.331289	0.237684	0.0529602	0	0	-0.200674	-0.0336284	0.17128	-0.0146703	-0.326291	0.712197	0.381043	0.84167	0	0	-0.0636616	-0.201665	0.179538	0.556384	1.5708	0	0
0.63	-2.88949	1.48116	-1.89633	0.721236	-0.194536	0.947236	0.254807	-0.172284	-0.0429414	1.24802	-0.193793	0	0	0.0672383	0.105136	-0.322657	0.231883	0.0553097	0	0	-0.205856	-0.0308516	0.161355	-0.0118663	-0.325977	0.70782	0.381188	0.846767	0	0	-0.0561209	-0.196226	0.175153	0.543829	1.5708	0	0
0.64	-2.9407	1.48127	-1.83836	0.720151	-0.18629	0.948518	0.277827	-0.166413	-0.0446773	1.25024	-0.179112	0	0	0.051049	0.103522	-0.315228	0.222294	0.0576909	0	0	-0.209061	-0.0241141	0.15341	-0.00804267	-0.324137	0.703204	0.380346	0.852387	0	0	-0.0474072	-0.191886	0.169131	0.530479	1.5708	0	0
0.65	-2.99395	1.48283	-1.77799	0.719097	-0.178279	0.949585	0.299915	-0.158455	-0.0400772	1.24625	-0.158821	0	0	0.037787	0.100475	-0.307642	0.214743	0.0594738	0	0	-0.211004	-0.0170309	0.146371	-0.00493056	-0.316613	0.664918	0.371811	0.908168	0	0	-0.0356535	-0.187956	0.167805	0.512576	1.5708	0	0
0.66	-3.04754	1.48349	-1.71637	0.717947	-0.170355	0.950544	0.319269	-0.151673	-0.0380169	1.23727	-0.139582	0	0	0.024599	0.0970074	-0.303255	0.208516	0.0634642	0	0	-0.213383	-0.00978309	0.136483	0.00107217	-0.315591	0.66884	0.370885	0.905837	0	0	-0.0270547	-0.185434	0.164875	0.501155	1.5708	0	0
0.67	-3.1249	1.48276	-1.63101	0.715953	-0.162322	0.951526	0.337116	-0.158272	-0.0339743	1.22105	-0.114315	0	0	0.00955037	0.0928297	-0.294936	0.201406	0.068025	0	0	-0.21698	0.000857321	0.127081	0.00729324	-0.315997	0.673213	0.368741	0.903177	0	0	-0.0174225	-0.181891	0.165065	0.488011	1.5708	0	0
0.68	3.11022	1.4819	-1.57586	0.714958	-0.154496	0.952378	0.351687	-0.152139	-0.0317741	1.20227	-0.0964838	0	0	-0.00470964	0.0904933	-0.286483	0.194194	0.0709949	0	0	-0.220047	0.00733981	0.118377	0.0140725	-0.315201	0.679367	0.366837	0.900149	0	0	-0.00779734	-0.180984	0.166234	0.475886	1.5708	0	0
0.69	3.08505	1.48082	-1.54275	0.714753	-0.146626	0.953119	0.362939	-0.135883	-0.0436073	1.18068	-0.0871458	0	0	-0.0188662	0.0891138	-0.278488	0.186932	0.074071	0	0	-0.223082	0.0105244	0.109109	0.0206952	-0.313487	0.687745	0.365593	0.895821	0	0	0.00164721	-0.182439	0.167449	0.465058	1.5708	0	0
0.7	-3.11231	1.48353	-1.61754	0.714204	-0.137271	0.952234	0.37868	-0.137447	-0.0356052	1.16114	-0.0596264	0	0	-0.0323381	0.0989937	-0.265881	0.176341	0.0779801	0	0	-0.217427	0.00288408	0.093938	0.0233135	-0.308687	0.700396	0.364105	0.887101	0	0	0.00134422	-0.191533	0.174436	0.467624	1.5708	0	0
0.71	3.11616	1.48202	-1.55584	0.713306	-0.129417	0.952849	0.387502	-0.133241	-0.0433028	1.12875	-0.0427522	0	0	-0.047355	0.0952124	-0.257337	0.169191	0.0824017	0	0	-0.221523	0.00977007	0.0853394	0.0301263	-0.309638	0.710709	0.364635	0.879356	0	0	0.00780351	-0.19357	0.180016	0.46429	1.5708	0	0
0.72	3.07207	1.48029	-1.50651	0.712508	-0.121455	0.95342	0.394864	-0.130608	-0.0551969	1.09192	-0.0305301	0	0	-0.062902	0.092083	-0.252242	0.161221	0.0865217	0	0	-0.225277	0.0157379	0.078489	0.0365027	-0.311081	0.721942	0.36567	0.870935	0	0	0.0138156	-0.195232	0.184511	0.461031	1.5708	0	0
0.73	3.03374	1.47899	-1.46493	0.711936	-0.113528	0.95386	0.40146	-0.127248	-0.0641802	1.05216	-0.0206738	0	0	-0.0777952	0.0893846	-0.248998	0.153224	0.0899117	0	0	-0.228722	0.0208434	0.0737418	0.0427989	-0.312262	0.732149	0.366517	0.864501	0	0	0.0193827	-0.196766	0.187447	0.458851	1.5708	0	0
0.74	2.9989	1.47663	-1.42739	0.711408	-0.105606	0.954284	0.40516	-0.124444	-0.0755316	1.00861	-0.012854	0	0	-0.0942659	0.0870778	-0.243909	0.144144	0.0921036	0	0	-0.233387	0.0257271	0.0701875	0.0483804	-0.312881	0.737198	0.366951	0.864365	0	0	0.0237897	-0.200552	0.200489	0.461045	1.5708	0	0
0.75	2.9687	1.47459	-1.39492	0.710918	-0.0976601	0.954604	0.407477	-0.122476	-0.0898734	0.961971	-0.00684172	0	0	-0.110007	0.0848836	-0.240298	0.135815	0.0945202	0	0	-0.23751	0.0305185	0.0669029	0.0540676	-0.314331	0.749945	0.368309	0.850797	0	0	0.029908	-0.200051	0.19732	0.455261	1.5708	0	0
0.76	2.94348	1.47272	-1.36787	0.710474	-0.089677	0.954783	0.408135	-0.121505	-0.10779	0.912093	0.000830702	0	0	-0.125614	0.0831518	-0.236978	0.127209	0.0964571	0	0	-0.241691	0.0347286	0.0647055	0.059088	-0.315712	0.763147	0.369898	0.835975	0	0	0.0358092	-0.200075	0.1981	0.451493	1.5708	0	0
